<?xml version="1.0" encoding="utf-8"?>
<!-- Generator: Adobe Illustrator 27.5.0, SVG Export Plug-In . SVG Version: 6.00 Build 0)  -->
<svg version="1.1" id="Capa_1" xmlns="http://www.w3.org/2000/svg" xmlns:xlink="http://www.w3.org/1999/xlink" x="0px" y="0px"
	 viewBox="0 0 425.197 425.197" style="background:transparent" xml:space="preserve">
<rect y="0" style="fill:transparent;" width="425.197" height="425.197"/>
<g>
	<g>
		<g>
			<path style="fill:#CCCDD2;" d="M175.651,244.816c0,7.719-6.257,13.975-13.977,13.975H64.611c-7.719,0-13.977-6.256-13.977-13.975
				V134.549c0-7.72,6.258-13.976,13.977-13.976h97.063c7.721,0,13.977,6.257,13.977,13.976V244.816z"/>
			<path style="fill:#FFFFFF;" d="M174.253,243.061c0,7.719-6.259,13.979-13.978,13.979H63.214c-7.72,0-13.979-6.26-13.979-13.979
				V132.799c0-7.72,6.259-13.979,13.979-13.979h97.062c7.719,0,13.978,6.26,13.978,13.979V243.061z"/>
			<path style="fill:#004A7C;" d="M174.253,139.786v-6.987c0-7.72-6.259-13.979-13.978-13.979H63.214
				c-7.72,0-13.979,6.26-13.979,13.979v6.987H174.253z"/>
			<path style="fill:#FFFFFF;" d="M147.465,133.888c0,0.629-0.512,1.145-1.143,1.145h-7.617c-0.629,0-1.141-0.516-1.141-1.145
				v-7.618c0-0.629,0.512-1.138,1.141-1.138h7.617c0.631,0,1.143,0.509,1.143,1.138V133.888z"/>
			<path style="fill:#FFFFFF;" d="M161.83,133.888c0,0.629-0.512,1.145-1.145,1.145h-7.614c-0.63,0-1.144-0.516-1.144-1.145v-7.618
				c0-0.629,0.514-1.138,1.144-1.138h7.614c0.633,0,1.145,0.509,1.145,1.138V133.888z"/>
			<path style="fill:#FFFFFF;" d="M130.961,130.083c0,2.732-2.213,4.95-4.947,4.95H61.952c-2.735,0-4.95-2.218-4.95-4.95l0,0
				c0-2.736,2.215-4.951,4.95-4.951h64.062C128.748,125.132,130.961,127.346,130.961,130.083L130.961,130.083z"/>
			<g>
				<g>
					<defs>
						<path id="SVGID_1_" d="M118.735,182.561c0,16.567-13.429,29.997-29.991,29.997c-16.566,0-29.995-13.43-29.995-29.997
							c0-16.563,13.429-29.993,29.995-29.993C105.307,152.568,118.735,165.999,118.735,182.561z"/>
					</defs>
					<use xlink:href="#SVGID_1_"  style="overflow:visible;fill:#D8DADE;"/>
					<clipPath id="SVGID_00000064347494910867700240000017978459069263337917_">
						<use xlink:href="#SVGID_1_"  style="overflow:visible;"/>
					</clipPath>
					<g style="clip-path:url(#SVGID_00000064347494910867700240000017978459069263337917_);">
						<path style="fill:#732313;" d="M103.75,199.8c0.946,4.425-30.249,3.944-30.249,0c4.872-8.411,0.159-14.03-0.409-25.114
							c-0.566-11.084,29.852-8.09,30.488,0C104.21,182.778,99.498,193.906,103.75,199.8z"/>
						<path style="fill:#F5BA93;" d="M98.296,220.517h4.479l-0.116-1.583c0,0-0.487-13.892-1.021-17.792
							c-0.536-3.901-3.61-3.859-3.61-3.859l-2.234,6.539c0,0,1.981,12.347,2.225,14.989
							C98.055,219.189,98.152,219.783,98.296,220.517z"/>
						<path style="fill:#F5BA93;" d="M77.37,220.517c0.163-0.807,0.273-1.454,0.312-1.856c0.242-2.641,2.226-14.989,2.226-14.989
							l-2.234-6.542c0,0-3.074-0.039-3.61,3.863c-0.535,3.898-1.021,17.789-1.021,17.789l-0.129,1.735H77.37z"/>
						<path style="fill:#E55747;" d="M78.189,215.11l1.205,5.406H96.33l1.796-5.406c0,0,2.838-2.101,2.811-4.051
							c-0.026-1.945-3.616-7.242-3.616-7.242l1.25-6.678l-5.351-2.525H82.816l-5.233,2.407l1.083,6.796c0,0-2.914,5.132-2.953,7.242
							C75.672,213.174,78.189,215.11,78.189,215.11z"/>
						<path style="fill:#F5BA93;" d="M93.219,194.615c0,0,1.888,7.393,0.866,9.285c-1.147,2.128-10.448,1.95-11.698,0
							c-1.25-1.949,0.43-9.285,0.43-9.285l1.602-0.082v-7.8h7.149v7.473L93.219,194.615z"/>
						<path style="fill:#DA9B7E;" d="M90.369,193.465c0.417-0.118,0.814-0.265,1.198-0.424v-6.308h-7.149v5.69
							C86.313,193.315,88.16,194.087,90.369,193.465z"/>
						<path style="fill:#F5BA93;" d="M103.631,182.437c-0.98,0.411-2.115-0.289-2.115-0.289s-5.039,0.261-5.039-1.052
							c0-1.318,0-2.055,0-4.396c0-3.133,5.039-2.82,5.039-2.82s1.137-1.593,2.662-0.506
							C106.584,175.091,105.519,181.643,103.631,182.437z"/>
						<path style="fill:#F5BA93;" d="M73.861,182.437c0.982,0.411,2.117-0.289,2.117-0.289s5.037,0.261,5.037-1.052
							c0-1.318,0-2.055,0-4.396c0-3.133-5.037-2.82-5.037-2.82s-1.137-1.593-2.662-0.506
							C70.909,175.091,71.973,181.643,73.861,182.437z"/>
						<path style="fill:#F5BA93;" d="M101.638,180.642c0,5.829-8.444,12.292-12.97,12.292c-4.975,0-12.964-6.877-12.964-12.658
							c0-6.823,0-6.823,0-12.189c0-17.217,25.934-18.358,25.934,0C101.638,179.787,101.638,172.272,101.638,180.642z"/>
						<path style="fill:#732313;" d="M76.49,174.059c-0.088-1.64,2.631-2.956,2.903-8.94c2.257,1.253,13.194,7.668,21.446,8.906
							c-0.092,3.469,0.73,4.596,0.969,5.601c0,0,0.02-2.999,0-4.543c-0.02-1.541,1.941-2.088,1.941-2.088v-5.312
							c0-2.854-2.922-16.101-15.146-12.999c-11.648-2.695-16.924,9.525-16.679,12.534c0.241,3.008,0.571,7.084,0.571,7.084
							s2.666-2.478,3.029,0.936c0.199,1.836,0.042,3.777,1.369,4.083C76.723,177.676,76.608,176.152,76.49,174.059z"/>
						<polygon style="fill:#DA9B7E;" points="88.426,174.951 88.426,183.488 89.928,182.31 						"/>
						<path style="fill:#732313;" d="M86.172,173.273c0,0-2.295-1.541-3.76-1.055c-1.461,0.487-3.287,2.068-3.287,2.068
							l-0.203-0.755c0,0,1.369-1.656,3.354-1.814C84.266,171.549,86.172,173.273,86.172,173.273z"/>
						<g>
							<path style="fill:#CB4639;" d="M84.901,186.487c0,0,1.212,1.164,1.9,1.211c0.69,0.046,3.208,0.157,4.056-0.129
								c0.286-0.096,1.295-1.057,1.295-1.057s-2.903-0.143-3.426-0.166C88.203,186.319,84.901,186.487,84.901,186.487z"/>
							<path style="fill:#E44E40;" d="M82.979,185.591c0,0,1.781,0.644,2.494,0.565c0.712-0.082,1.905-1.085,2.191-0.962
								c0.283,0.118,0.995,0.417,0.995,0.417s0.929-0.467,1.214-0.417c0.283,0.046,1.762,1.03,2.279,0.962
								c0.514-0.074,1.719-0.565,1.719-0.565s-1.49,0.986-2.084,1.165c-1.096,0.325-2.271-0.017-3.053-0.066
								c-0.938-0.061-2.301,0.6-3.371,0.034C84.295,186.163,82.979,185.591,82.979,185.591z"/>
						</g>
						<path style="fill:#732313;" d="M91.32,173.13c0,0,2.295-1.547,3.756-1.059c1.464,0.49,3.295,2.071,3.295,2.071l0.199-0.759
							c0,0-1.364-1.656-3.355-1.816C93.227,171.402,91.32,173.13,91.32,173.13z"/>
						<g>
							<path style="fill:#2D120E;" d="M94.506,174.557c1.674,0,1.417,1.243,1.951,1.578c0.148-0.093,1.065-0.399,1.065-0.399
								s-0.884-1.483-3.017-1.483c-2.131,0-2.928,1.454-2.928,1.454s0.332,0,0.478,0.092
								C92.592,175.462,92.837,174.557,94.506,174.557z"/>
							<path style="fill:#FFFFFF;" d="M97.119,175.736c0,0-0.345,1.261-2.48,1.261c-2.132,0-3.01-1.29-3.01-1.29
								s0.878-1.23,3.01-1.23C96.774,174.477,97.119,175.736,97.119,175.736z"/>
							<g>
								<path style="fill:#2D120E;" d="M93.178,175.711c0,0.502,0.246,0.948,0.623,1.218c0.272,0.043,0.552,0.068,0.838,0.068
									c0.291,0,0.57-0.025,0.84-0.068c0.377-0.27,0.624-0.715,0.624-1.218c0-0.506-0.247-0.948-0.624-1.222
									c-0.27-0.04-0.549-0.064-0.84-0.064c-0.286,0-0.566,0.025-0.838,0.064C93.424,174.763,93.178,175.205,93.178,175.711z"/>
							</g>
							<path style="fill:#170000;" d="M95.234,175.736c0,0.328-0.268,0.595-0.596,0.595c-0.326,0-0.594-0.268-0.594-0.595
								c0-0.328,0.268-0.596,0.594-0.596C94.967,175.14,95.234,175.408,95.234,175.736z"/>
							<path style="fill:#FFFFFF;" d="M94.483,175.173c0,0.146-0.124,0.264-0.271,0.264c-0.148,0-0.266-0.118-0.266-0.264
								c0-0.151,0.117-0.269,0.266-0.269C94.359,174.904,94.483,175.022,94.483,175.173z"/>
							<path style="fill:#FFFFFF;" d="M94.652,175.752c0,0.079-0.061,0.141-0.141,0.141c-0.076,0-0.139-0.062-0.139-0.141
								c0-0.075,0.063-0.14,0.139-0.14C94.592,175.612,94.652,175.677,94.652,175.752z"/>
						</g>
						<g>
							<path style="fill:#2D120E;" d="M82.986,174.557c-1.673,0-1.416,1.243-1.947,1.578c-0.149-0.093-1.068-0.399-1.068-0.399
								s0.884-1.483,3.016-1.483c2.129,0,2.93,1.454,2.93,1.454s-0.334,0-0.477,0.092C84.901,175.462,84.66,174.557,82.986,174.557z
								"/>
							<path style="fill:#FFFFFF;" d="M80.377,175.736c0,0,0.344,1.261,2.477,1.261c2.131,0,3.012-1.29,3.012-1.29
								s-0.881-1.23-3.012-1.23C80.721,174.477,80.377,175.736,80.377,175.736z"/>
							<g>
								<path style="fill:#2D120E;" d="M84.316,175.711c0,0.502-0.246,0.948-0.623,1.218c-0.271,0.043-0.553,0.068-0.84,0.068
									c-0.289,0-0.568-0.025-0.839-0.068c-0.378-0.27-0.622-0.715-0.622-1.218c0-0.506,0.244-0.948,0.622-1.222
									c0.271-0.04,0.55-0.064,0.839-0.064c0.287,0,0.568,0.025,0.84,0.064C84.07,174.763,84.316,175.205,84.316,175.711z"/>
							</g>
							<path style="fill:#170000;" d="M82.26,175.736c0,0.328,0.264,0.595,0.594,0.595c0.332,0,0.593-0.268,0.593-0.595
								c0-0.328-0.261-0.596-0.593-0.596C82.523,175.14,82.26,175.408,82.26,175.736z"/>
							<path style="fill:#FFFFFF;" d="M83.012,175.173c0,0.146,0.12,0.264,0.27,0.264c0.146,0,0.266-0.118,0.266-0.264
								c0-0.151-0.12-0.269-0.266-0.269C83.132,174.904,83.012,175.022,83.012,175.173z"/>
							<path style="fill:#FFFFFF;" d="M82.842,175.752c0,0.079,0.063,0.141,0.141,0.141c0.074,0,0.141-0.062,0.141-0.141
								c0-0.075-0.066-0.14-0.141-0.14C82.904,175.612,82.842,175.677,82.842,175.752z"/>
						</g>
					</g>
				</g>
			</g>
			<rect x="123.691" y="154.786" style="fill:#B0AFB5;" width="40.272" height="7.619"/>
			<rect x="123.691" y="167.848" style="fill:#D8DADE;" width="40.272" height="3.809"/>
			<rect x="123.691" y="175.646" style="fill:#D8DADE;" width="40.272" height="3.808"/>
			<rect x="123.691" y="183.445" style="fill:#D8DADE;" width="40.272" height="3.811"/>
			<rect x="123.691" y="191.242" style="fill:#D8DADE;" width="40.272" height="3.812"/>
			<rect x="123.691" y="199.046" style="fill:#D8DADE;" width="40.272" height="3.806"/>
			<rect x="123.691" y="206.843" style="fill:#D8DADE;" width="40.272" height="3.813"/>
			<rect x="64.191" y="222.813" style="fill:#D8DADE;" width="99.772" height="3.809"/>
			<rect x="64.191" y="232.246" style="fill:#D8DADE;" width="99.772" height="3.807"/>
		</g>
	</g>
	<g>
		<path style="fill:#C3C5CA;" d="M381.267,174.315c-2.072-3.105-5.607-5.153-9.621-5.153h-80.279
			c-6.387,0-11.563,5.177-11.563,11.563v5.778v85.419c0,3.04,1.184,5.798,3.102,7.86c2.072,3.104,5.605,5.15,9.617,5.15h80.281
			c6.385,0,11.563-5.174,11.563-11.558v-91.202C384.366,179.134,383.185,176.378,381.267,174.315z"/>
		<g>
			<path style="fill:#CCCDD2;" d="M389.032,270.707c0,6.384-5.178,11.558-11.563,11.558H297.19c-6.385,0-11.561-5.174-11.561-11.558
				v-91.202c0-6.384,5.176-11.559,11.561-11.559h80.279c6.385,0,11.563,5.175,11.563,11.559V270.707z"/>
			<path style="fill:#FFFFFF;" d="M387.874,269.255c0,6.387-5.176,11.561-11.563,11.561h-80.277
				c-6.387,0-11.563-5.175-11.563-11.561v-91.197c0-6.386,5.176-11.563,11.563-11.563h80.277c6.387,0,11.563,5.177,11.563,11.563
				V269.255z"/>
			<path style="fill:#004A7C;" d="M387.874,183.836v-5.778c0-6.386-5.176-11.563-11.563-11.563h-80.277
				c-6.387,0-11.563,5.177-11.563,11.563v5.778H387.874z"/>
			<path style="fill:#FFFFFF;" d="M365.718,178.956c0,0.522-0.422,0.948-0.945,0.948h-6.301c-0.522,0-0.943-0.426-0.943-0.948
				v-6.299c0-0.52,0.422-0.941,0.943-0.941h6.301c0.523,0,0.945,0.422,0.945,0.941V178.956z"/>
			<path style="fill:#FFFFFF;" d="M377.599,178.956c0,0.522-0.424,0.948-0.945,0.948h-6.299c-0.521,0-0.943-0.426-0.943-0.948
				v-6.299c0-0.52,0.422-0.941,0.943-0.941h6.299c0.522,0,0.945,0.422,0.945,0.941V178.956z"/>
			<path style="fill:#FFFFFF;" d="M352.069,175.811c0,2.26-1.832,4.094-4.094,4.094h-52.984c-2.264,0-4.096-1.834-4.096-4.094l0,0
				c0-2.265,1.832-4.095,4.096-4.095h52.984C350.237,171.716,352.069,173.546,352.069,175.811L352.069,175.811z"/>
			<g>
				<g>
					<defs>
						<path id="SVGID_00000071550712855325706600000005436073343382821019_" d="M341.956,219.218
							c0,13.701-11.105,24.809-24.807,24.809c-13.705,0-24.809-11.107-24.809-24.809c0-13.698,11.104-24.807,24.809-24.807
							C330.851,194.411,341.956,205.52,341.956,219.218z"/>
					</defs>
					<use xlink:href="#SVGID_00000071550712855325706600000005436073343382821019_"  style="overflow:visible;fill:#D8DADE;"/>
					<clipPath id="SVGID_00000105400943504395482390000007323984125827129021_">
						<use xlink:href="#SVGID_00000071550712855325706600000005436073343382821019_"  style="overflow:visible;"/>
					</clipPath>
					<g style="clip-path:url(#SVGID_00000105400943504395482390000007323984125827129021_);">
						<path style="fill:#51361D;" d="M321.956,242.095c0.856,4.015-12.402,1.143-12.402-2.432c4.424-7.635-6.279-8.215-6.607-24.768
							c-0.199-10.068,27.578-7.364,27.658,0C330.763,229.556,318.095,236.748,321.956,242.095z"/>
						<path style="fill:#9D6B3F;" d="M325.814,256.477h4.063l-0.107-1.438c0,0-0.441-12.604-0.928-16.144
							c-0.484-3.539-3.273-3.501-3.273-3.501l-2.025,5.934c0,0,1.797,11.199,2.02,13.599
							C325.591,255.27,325.683,255.81,325.814,256.477z"/>
						<path style="fill:#9D6B3F;" d="M306.829,256.477c0.145-0.731,0.246-1.321,0.279-1.688c0.219-2.396,2.018-13.599,2.018-13.599
							l-2.027-5.934c0,0-2.789-0.037-3.273,3.503c-0.486,3.537-0.928,16.141-0.928,16.141l-0.117,1.577H306.829z"/>
						<path style="fill:#5AB9BD;" d="M307.569,251.57l1.092,4.906h15.367l1.631-4.906c0,0,2.572-1.905,2.551-3.675
							c-0.025-1.767-3.283-6.569-3.283-6.569l1.135-6.06l-4.856-2.295h-9.436l-4.754,2.187l0.986,6.168c0,0-2.645,4.654-2.68,6.569
							C305.286,249.81,307.569,251.57,307.569,251.57z"/>
						<path style="fill:#9D6B3F;" d="M321.206,232.972c0,0,1.715,6.709,0.783,8.428c-1.039,1.93-9.478,1.77-10.611,0
							c-1.133-1.77,0.393-8.428,0.393-8.428l1.451-0.072v-7.074h6.486v6.777L321.206,232.972z"/>
						<path style="fill:#815931;" d="M318.622,231.931c0.377-0.106,0.738-0.239,1.086-0.385v-5.721h-6.486v5.165
							C314.94,231.795,316.616,232.494,318.622,231.931z"/>
						<path style="fill:#9D6B3F;" d="M330.651,221.926c-0.891,0.37-1.918-0.267-1.918-0.267s-4.57,0.237-4.57-0.953
							c0-1.191,0-1.865,0-3.986c0-2.842,4.57-2.563,4.57-2.563s1.031-1.441,2.416-0.455
							C333.333,215.259,332.366,221.207,330.651,221.926z"/>
						<path style="fill:#9D6B3F;" d="M303.644,221.926c0.891,0.37,1.922-0.267,1.922-0.267s4.568,0.237,4.568-0.953
							c0-1.191,0-1.865,0-3.986c0-2.842-4.568-2.563-4.568-2.563s-1.035-1.441-2.418-0.455
							C300.964,215.259,301.929,221.207,303.644,221.926z"/>
						<path style="fill:#9D6B3F;" d="M328.841,220.293c0,5.292-7.66,11.155-11.764,11.155c-4.516,0-11.764-6.238-11.764-11.483
							c0-6.191,0-6.191,0-11.057c0-15.63,23.527-16.66,23.527,0C328.841,219.52,328.841,212.702,328.841,220.293z"/>
						<path style="fill:#51361D;" d="M306.028,214.325c-0.082-1.49,8.301-3.54,10.584-10.048c2.215,5.604,4.023,8.89,11.51,10.014
							c-0.084,3.145,0.66,4.169,0.877,5.082c0,0,0.017-2.72,0-4.118c-0.018-1.4,1.764-1.898,1.764-1.898v-4.819
							c0-2.585-2.652-14.607-13.746-11.794c-10.566-2.445-15.139,7.756-15.131,11.374c0.004,2.736,0.517,6.428,0.517,6.428
							s2.42-2.246,2.75,0.848c0.18,1.667,0.037,3.429,1.242,3.704C306.239,217.605,306.134,216.223,306.028,214.325z"/>
						<polygon style="fill:#815931;" points="316.857,215.134 316.857,222.882 318.22,221.808 						"/>
						<path style="fill:#51361D;" d="M314.814,213.61c0,0-2.082-1.399-3.41-0.958c-1.324,0.44-2.986,1.881-2.986,1.881l-0.182-0.692
							c0,0,1.24-1.498,3.041-1.645C313.085,212.049,314.814,213.61,314.814,213.61z"/>
						<g>
							<path style="fill:#843921;" d="M313.659,225.601c0,0,1.102,1.056,1.725,1.1c0.627,0.043,2.912,0.141,3.682-0.121
								c0.26-0.084,1.172-0.957,1.172-0.957s-2.635-0.129-3.109-0.15C316.657,225.449,313.659,225.601,313.659,225.601z"/>
							<path style="fill:#843921;" d="M311.915,224.786c0,0,1.615,0.583,2.264,0.512c0.645-0.072,1.729-0.981,1.988-0.872
								c0.256,0.109,0.902,0.382,0.902,0.382s0.842-0.426,1.1-0.382c0.258,0.046,1.6,0.938,2.068,0.872
								c0.469-0.064,1.561-0.512,1.561-0.512s-1.35,0.894-1.893,1.055c-0.992,0.298-2.061-0.01-2.77-0.058
								c-0.85-0.056-2.086,0.542-3.055,0.031C313.108,225.304,311.915,224.786,311.915,224.786z"/>
						</g>
						<path style="fill:#51361D;" d="M319.482,213.478c0,0,2.084-1.4,3.41-0.957c1.328,0.441,2.986,1.88,2.986,1.88l0.184-0.692
							c0,0-1.238-1.497-3.043-1.644C321.214,211.915,319.482,213.478,319.482,213.478z"/>
						<g>
							<path style="fill:#2D120E;" d="M322.376,214.773c1.516,0,1.283,1.131,1.768,1.433c0.133-0.081,0.967-0.361,0.967-0.361
								s-0.801-1.343-2.734-1.343c-1.936,0-2.658,1.319-2.658,1.319s0.301,0,0.432,0.083
								C320.638,215.602,320.858,214.773,322.376,214.773z"/>
							<path style="fill:#FFFFFF;" d="M324.743,215.844c0,0-0.314,1.142-2.248,1.142c-1.935,0-2.73-1.165-2.73-1.165
								s0.795-1.118,2.73-1.118C324.429,214.702,324.743,215.844,324.743,215.844z"/>
							<g>
								<path style="fill:#2D120E;" d="M321.167,215.82c0,0.458,0.227,0.862,0.568,1.107c0.244,0.038,0.498,0.059,0.76,0.059
									c0.262,0,0.516-0.02,0.762-0.059c0.342-0.244,0.566-0.648,0.566-1.107c0-0.457-0.225-0.858-0.566-1.104
									c-0.246-0.038-0.5-0.061-0.762-0.061c-0.262,0-0.516,0.022-0.76,0.061C321.394,214.962,321.167,215.363,321.167,215.82z"/>
							</g>
							<path style="fill:#170000;" d="M323.034,215.844c0,0.298-0.24,0.542-0.539,0.542c-0.299,0-0.539-0.244-0.539-0.542
								c0-0.296,0.24-0.538,0.539-0.538C322.794,215.306,323.034,215.548,323.034,215.844z"/>
							<path style="fill:#FFFFFF;" d="M322.353,215.329c0,0.137-0.109,0.242-0.244,0.242c-0.135,0-0.242-0.105-0.242-0.242
								c0-0.132,0.107-0.239,0.242-0.239C322.243,215.09,322.353,215.197,322.353,215.329z"/>
							<path style="fill:#FFFFFF;" d="M322.509,215.861c0,0.069-0.059,0.128-0.129,0.128c-0.07,0-0.127-0.059-0.127-0.128
								c0-0.07,0.057-0.128,0.127-0.128C322.45,215.733,322.509,215.791,322.509,215.861z"/>
						</g>
						<g>
							<path style="fill:#2D120E;" d="M311.921,214.773c-1.516,0-1.281,1.131-1.77,1.433c-0.133-0.081-0.965-0.361-0.965-0.361
								s0.801-1.343,2.734-1.343c1.936,0,2.658,1.319,2.658,1.319s-0.299,0-0.434,0.083
								C313.659,215.602,313.44,214.773,311.921,214.773z"/>
							<path style="fill:#FFFFFF;" d="M309.554,215.844c0,0,0.314,1.142,2.248,1.142c1.934,0,2.73-1.165,2.73-1.165
								s-0.797-1.118-2.73-1.118C309.868,214.702,309.554,215.844,309.554,215.844z"/>
							<g>
								<path style="fill:#2D120E;" d="M313.128,215.82c0,0.458-0.225,0.862-0.564,1.107c-0.246,0.038-0.5,0.059-0.762,0.059
									c-0.26,0-0.518-0.02-0.76-0.059c-0.346-0.244-0.566-0.648-0.566-1.107c0-0.457,0.221-0.858,0.566-1.104
									c0.242-0.038,0.5-0.061,0.76-0.061c0.262,0,0.516,0.022,0.762,0.061C312.903,214.962,313.128,215.363,313.128,215.82z"/>
							</g>
							<path style="fill:#170000;" d="M311.265,215.844c0,0.298,0.238,0.542,0.537,0.542c0.297,0,0.539-0.244,0.539-0.542
								c0-0.296-0.242-0.538-0.539-0.538C311.503,215.306,311.265,215.548,311.265,215.844z"/>
							<path style="fill:#FFFFFF;" d="M311.946,215.329c0,0.137,0.109,0.242,0.244,0.242c0.133,0,0.238-0.105,0.238-0.242
								c0-0.132-0.105-0.239-0.238-0.239C312.056,215.09,311.946,215.197,311.946,215.329z"/>
							<path style="fill:#FFFFFF;" d="M311.79,215.861c0,0.069,0.059,0.128,0.125,0.128c0.074,0,0.129-0.059,0.129-0.128
								c0-0.07-0.055-0.128-0.129-0.128C311.849,215.733,311.79,215.791,311.79,215.861z"/>
						</g>
					</g>
				</g>
			</g>
			<rect x="346.054" y="196.243" style="fill:#B0AFB5;" width="33.309" height="6.301"/>
			<rect x="346.054" y="207.046" style="fill:#D8DADE;" width="33.309" height="3.15"/>
			<polygon style="fill:#D8DADE;" points="379.362,216.645 369.754,216.645 346.054,216.645 346.054,213.497 379.362,213.497 			"/>
			<rect x="346.054" y="219.948" style="fill:#D8DADE;" width="33.309" height="3.152"/>
			<rect x="346.054" y="226.398" style="fill:#D8DADE;" width="33.309" height="3.152"/>
			<rect x="346.054" y="232.851" style="fill:#D8DADE;" width="33.309" height="3.149"/>
			<rect x="346.054" y="239.3" style="fill:#D8DADE;" width="33.309" height="3.151"/>
			<rect x="296.841" y="252.508" style="fill:#D8DADE;" width="82.521" height="3.149"/>
			<rect x="296.841" y="260.309" style="fill:#D8DADE;" width="82.521" height="3.15"/>
		</g>
	</g>
	<g>
		<path style="fill:#D8DADE;" d="M313.795,65.367c-1.712-2.57-4.636-4.263-7.953-4.263H239.49c-5.276,0-9.555,4.276-9.555,9.552
			v4.779v70.597c0,2.51,0.976,4.787,2.56,6.491c1.714,2.568,4.633,4.26,7.951,4.26h66.352c5.275,0,9.555-4.276,9.555-9.556V71.856
			C316.353,69.348,315.376,67.072,313.795,65.367z"/>
		<g>
			<path style="fill:#CCCDD2;" d="M320.107,143.473c0,5.28-4.278,9.556-9.555,9.556h-66.351c-5.277,0-9.555-4.276-9.555-9.556
				V68.101c0-5.276,4.277-9.556,9.555-9.556h66.351c5.276,0,9.555,4.28,9.555,9.556V143.473z"/>
			<path style="fill:#FFFFFF;" d="M319.151,142.277c0,5.276-4.278,9.554-9.555,9.554h-66.352c-5.275,0-9.555-4.277-9.555-9.554
				V66.901c0-5.276,4.279-9.552,9.555-9.552h66.352c5.276,0,9.555,4.276,9.555,9.552V142.277z"/>
			<path style="fill:#004A7C;" d="M319.151,71.681v-4.78c0-5.276-4.278-9.552-9.555-9.552h-66.352c-5.275,0-9.555,4.276-9.555,9.552
				v4.78H319.151z"/>
			<path style="fill:#FFFFFF;" d="M300.839,67.649c0,0.432-0.35,0.78-0.781,0.78h-5.205c-0.432,0-0.781-0.348-0.781-0.78v-5.208
				c0-0.431,0.35-0.781,0.781-0.781h5.205c0.432,0,0.781,0.351,0.781,0.781V67.649z"/>
			<path style="fill:#FFFFFF;" d="M310.658,67.649c0,0.432-0.35,0.78-0.78,0.78h-5.207c-0.431,0-0.78-0.348-0.78-0.78v-5.208
				c0-0.431,0.35-0.781,0.78-0.781h5.207c0.431,0,0.78,0.351,0.78,0.781V67.649z"/>
			<path style="fill:#FFFFFF;" d="M289.559,65.045c0,1.869-1.516,3.384-3.384,3.384h-43.79c-1.87,0-3.384-1.515-3.384-3.384l0,0
				c0-1.869,1.514-3.385,3.384-3.385h43.79C288.043,61.66,289.559,63.176,289.559,65.045L289.559,65.045z"/>
			<g>
				<g>
					<defs>
						<path id="SVGID_00000017484356528099984810000001325531598943714202_" d="M281.2,100.921c0,11.326-9.179,20.505-20.504,20.505
							c-11.321,0-20.502-9.179-20.502-20.505c0-11.322,9.181-20.503,20.502-20.503C272.022,80.419,281.2,89.599,281.2,100.921z"/>
					</defs>
					<use xlink:href="#SVGID_00000017484356528099984810000001325531598943714202_"  style="overflow:visible;fill:#D8DADE;"/>
					<clipPath id="SVGID_00000029043979721168037440000008147148743407890330_">
						<use xlink:href="#SVGID_00000017484356528099984810000001325531598943714202_"  style="overflow:visible;"/>
					</clipPath>
					<g style="clip-path:url(#SVGID_00000029043979721168037440000008147148743407890330_);">
						<path style="fill:#DE8021;" d="M267.486,108.752c-3.347,3.05-10.833,2.527-13.08,0.814c-2.244-1.714-6.464-4.229-4.849-12.508
							c1.604-8.2,21.249-6.09,21.699,0C271.706,103.152,270.687,105.838,267.486,108.752z"/>
						<path style="fill:#F2D4B6;" d="M267.499,129.382h3.188l-0.086-1.125c0,0-0.344-9.89-0.726-12.665
							c-0.379-2.775-2.569-2.747-2.569-2.747l-1.59,4.655c0,0,1.411,8.787,1.585,10.669
							C267.325,128.437,267.396,128.864,267.499,129.382z"/>
						<path style="fill:#F2D4B6;" d="M252.605,129.382c0.112-0.569,0.193-1.033,0.221-1.32c0.17-1.881,1.581-10.669,1.581-10.669
							l-1.589-4.656c0,0-2.188-0.028-2.57,2.749c-0.381,2.772-0.726,12.663-0.726,12.663l-0.091,1.233H252.605z"/>
						<path style="fill:#B3211B;" d="M253.187,125.535l0.857,3.847h12.054l1.278-3.847c0,0,2.022-1.494,2.003-2.881
							c-0.02-1.389-2.575-5.155-2.575-5.155l0.889-4.754l-3.81-1.799h-7.403l-3.726,1.716l0.773,4.837c0,0-2.073,3.65-2.102,5.155
							C251.394,124.157,253.187,125.535,253.187,125.535z"/>
						<path style="fill:#F2D4B6;" d="M263.883,110.945c0,0,1.345,5.264,0.618,6.611c-0.818,1.513-7.439,1.389-8.33,0
							c-0.887-1.386,0.309-6.611,0.309-6.611l1.14-0.54v-5.068h5.09v4.836L263.883,110.945z"/>
						<path style="fill:#DA9B7E;" d="M261.857,110.126c0.295-0.083,0.579-0.186,0.853-0.301v-4.488h-5.09v4.05
							C258.971,110.021,260.284,110.571,261.857,110.126z"/>
						<path style="fill:#F2D4B6;" d="M271.296,102.278c-0.699,0.291-1.506-0.208-1.506-0.208s-3.588,0.186-3.588-0.749
							c0-0.935,0-1.46,0-3.127c0-2.231,3.588-2.007,3.588-2.007s0.809-1.136,1.895-0.36
							C273.397,97.049,272.64,101.716,271.296,102.278z"/>
						<path style="fill:#F2D4B6;" d="M250.107,102.278c0.699,0.291,1.506-0.208,1.506-0.208s3.586,0.186,3.586-0.749
							c0-0.935,0-1.46,0-3.127c0-2.231-3.586-2.007-3.586-2.007s-0.81-1.136-1.895-0.36
							C248.003,97.049,248.761,101.716,250.107,102.278z"/>
						<path style="fill:#F2D4B6;" d="M269.875,100.999c0,4.149-6.009,8.75-9.229,8.75c-3.543,0-9.232-4.893-9.232-9.009
							c0-4.858,0-4.858,0-8.674c0-12.261,18.462-13.069,18.462,0C269.875,100.393,269.875,95.044,269.875,100.999z"/>
						<path style="fill:#DE8021;" d="M251.979,96.315c-0.065-1.169,1.87-2.106,2.064-6.364c1.609,0.892,9.393,5.457,15.268,6.339
							c-0.065,2.468,0.52,3.269,0.688,3.984c0,0,0.016-2.133,0-3.229c-0.012-1.1,1.387-1.491,1.387-1.491v-3.777
							c0-2.033-2.084-11.461-10.787-9.254c-8.288-1.921-12.043,6.781-11.869,8.921c0.173,2.142,0.405,5.041,0.405,5.041
							s1.9-1.763,2.159,0.666c0.139,1.308,0.026,2.688,0.973,2.908C252.143,98.89,252.06,97.807,251.979,96.315z"/>
						<polygon style="fill:#DA9B7E;" points="260.472,96.951 260.472,103.027 261.543,102.188 						"/>
						<path style="fill:#DE8021;" d="M258.868,95.755c0,0-1.633-1.098-2.675-0.751c-1.042,0.347-2.342,1.474-2.342,1.474
							l-0.142-0.543c0,0,0.968-1.176,2.386-1.291C257.514,94.528,258.868,95.755,258.868,95.755z"/>
						<g>
							<path style="fill:#E24E70;" d="M257.964,105.162c0,0,0.863,0.829,1.352,0.861c0.492,0.034,2.286,0.113,2.888-0.091
								c0.205-0.067,0.922-0.754,0.922-0.754s-2.065-0.1-2.44-0.117C260.314,105.044,257.964,105.162,257.964,105.162z"/>
							<path style="fill:#E56681;" d="M256.597,104.521c0,0,1.267,0.461,1.773,0.401c0.506-0.055,1.357-0.768,1.559-0.682
								c0.203,0.084,0.709,0.297,0.709,0.297s0.66-0.333,0.863-0.297c0.203,0.037,1.254,0.734,1.624,0.682
								c0.366-0.048,1.222-0.401,1.222-0.401s-1.059,0.703-1.483,0.83c-0.778,0.232-1.616-0.01-2.174-0.047
								c-0.665-0.044-1.636,0.424-2.396,0.027C257.533,104.931,256.597,104.521,256.597,104.521z"/>
						</g>
						<path style="fill:#DE8021;" d="M262.533,95.65c0,0,1.634-1.096,2.675-0.749c1.041,0.346,2.342,1.473,2.342,1.473l0.143-0.54
							c0,0-0.969-1.177-2.387-1.293C263.888,94.425,262.533,95.65,262.533,95.65z"/>
						<g>
							<path style="fill:#2D120E;" d="M264.802,96.671c1.191,0,1.008,0.884,1.389,1.121c0.104-0.066,0.758-0.283,0.758-0.283
								s-0.631-1.057-2.147-1.057c-1.518,0-2.086,1.037-2.086,1.037s0.235,0,0.34,0.064
								C263.438,97.314,263.611,96.671,264.802,96.671z"/>
							<path style="fill:#FFFFFF;" d="M266.66,97.509c0,0-0.247,0.896-1.765,0.896c-1.517,0-2.143-0.916-2.143-0.916
								s0.626-0.878,2.143-0.878C266.413,96.611,266.66,97.509,266.66,97.509z"/>
							<g>
								<path style="fill:#2D120E;" d="M263.857,97.49c0,0.358,0.173,0.676,0.441,0.867c0.193,0.029,0.392,0.049,0.598,0.049
									c0.205,0,0.405-0.019,0.598-0.049c0.268-0.19,0.443-0.508,0.443-0.867c0-0.358-0.176-0.676-0.443-0.869
									c-0.192-0.027-0.393-0.044-0.598-0.044c-0.206,0-0.404,0.017-0.598,0.044C264.029,96.814,263.857,97.132,263.857,97.49z"/>
							</g>
							<path style="fill:#170000;" d="M265.317,97.509c0,0.231-0.188,0.422-0.422,0.422c-0.232,0-0.424-0.191-0.424-0.422
								c0-0.235,0.191-0.424,0.424-0.424C265.13,97.085,265.317,97.274,265.317,97.509z"/>
							<path style="fill:#FFFFFF;" d="M264.782,97.104c0,0.105-0.086,0.191-0.19,0.191c-0.105,0-0.19-0.085-0.19-0.191
								c0-0.105,0.085-0.188,0.19-0.188C264.696,96.916,264.782,96.999,264.782,97.104z"/>
							<path style="fill:#FFFFFF;" d="M264.905,97.521c0,0.056-0.045,0.1-0.102,0.1c-0.053,0-0.098-0.044-0.098-0.1
								c0-0.057,0.045-0.101,0.098-0.101C264.86,97.42,264.905,97.464,264.905,97.521z"/>
						</g>
						<g>
							<path style="fill:#2D120E;" d="M256.6,96.671c-1.188,0-1.005,0.884-1.386,1.121c-0.105-0.066-0.762-0.283-0.762-0.283
								s0.631-1.057,2.147-1.057c1.519,0,2.085,1.037,2.085,1.037s-0.234,0-0.34,0.064C257.964,97.314,257.79,96.671,256.6,96.671z"
								/>
							<path style="fill:#FFFFFF;" d="M254.743,97.509c0,0,0.245,0.896,1.764,0.896c1.516,0,2.141-0.916,2.141-0.916
								s-0.625-0.878-2.141-0.878C254.988,96.611,254.743,97.509,254.743,97.509z"/>
							<g>
								<path style="fill:#2D120E;" d="M257.548,97.49c0,0.358-0.176,0.676-0.445,0.867c-0.19,0.029-0.391,0.049-0.596,0.049
									c-0.205,0-0.404-0.019-0.597-0.049c-0.269-0.19-0.445-0.508-0.445-0.867c0-0.358,0.177-0.676,0.445-0.869
									c0.192-0.027,0.392-0.044,0.597-0.044c0.205,0,0.405,0.017,0.596,0.044C257.372,96.814,257.548,97.132,257.548,97.49z"/>
							</g>
							<path style="fill:#170000;" d="M256.083,97.509c0,0.231,0.191,0.422,0.424,0.422c0.232,0,0.423-0.191,0.423-0.422
								c0-0.235-0.19-0.424-0.423-0.424C256.274,97.085,256.083,97.274,256.083,97.509z"/>
							<path style="fill:#FFFFFF;" d="M256.619,97.104c0,0.105,0.085,0.191,0.19,0.191s0.191-0.085,0.191-0.191
								c0-0.105-0.086-0.188-0.191-0.188S256.619,96.999,256.619,97.104z"/>
							<path style="fill:#FFFFFF;" d="M256.497,97.521c0,0.056,0.043,0.1,0.1,0.1c0.055,0,0.101-0.044,0.101-0.1
								c0-0.057-0.046-0.101-0.101-0.101C256.54,97.42,256.497,97.464,256.497,97.521z"/>
						</g>
					</g>
				</g>
			</g>
			<rect x="284.589" y="81.933" style="fill:#B0AFB5;" width="27.529" height="5.208"/>
			<rect x="284.589" y="90.86" style="fill:#D8DADE;" width="27.529" height="2.605"/>
			<rect x="284.589" y="96.193" style="fill:#D8DADE;" width="27.529" height="2.605"/>
			<rect x="284.589" y="101.525" style="fill:#D8DADE;" width="27.529" height="2.603"/>
			<rect x="284.589" y="106.856" style="fill:#D8DADE;" width="27.529" height="2.605"/>
			<rect x="284.589" y="112.189" style="fill:#D8DADE;" width="27.529" height="2.602"/>
			<rect x="284.589" y="117.521" style="fill:#D8DADE;" width="27.529" height="2.603"/>
			<rect x="243.915" y="128.435" style="fill:#D8DADE;" width="68.203" height="2.602"/>
			<rect x="243.915" y="134.883" style="fill:#D8DADE;" width="68.203" height="2.604"/>
		</g>
	</g>
</g>
<g>
	<g>
		<path style="opacity:0.07;fill:#737277;" d="M296.864,382.147c0,4.871-37.727,8.819-84.266,8.819
			c-46.539,0-84.266-3.948-84.266-8.819c0-4.87,37.727-8.818,84.266-8.818C259.138,373.329,296.864,377.277,296.864,382.147z"/>
		<path style="opacity:0.07;fill:#737277;" d="M290.194,382.147c0,4.485-34.74,8.121-77.596,8.121
			c-42.855,0-77.596-3.636-77.596-8.121c0-4.484,34.74-8.12,77.596-8.12C255.454,374.027,290.194,377.663,290.194,382.147z"/>
		<path style="opacity:0.07;fill:#737277;" d="M329.036,382.147c0,6.73-52.131,12.187-116.438,12.187
			c-64.307,0-116.437-5.456-116.437-12.187c0-6.729,52.131-12.185,116.437-12.185C276.905,369.963,329.036,375.418,329.036,382.147z
			"/>
		<path style="opacity:0.07;fill:#737277;" d="M319.821,382.147c0,6.197-48.006,11.222-107.223,11.222
			s-107.222-5.025-107.222-11.222c0-6.196,48.005-11.221,107.222-11.221S319.821,375.951,319.821,382.147z"/>
		<path style="opacity:0.07;fill:#737277;" d="M312.022,382.147c0,5.747-44.514,10.405-99.424,10.405
			c-54.91,0-99.424-4.658-99.424-10.405c0-5.746,44.514-10.404,99.424-10.404C267.509,371.743,312.022,376.401,312.022,382.147z"/>
		<ellipse style="opacity:0.07;fill:#737277;" cx="212.598" cy="382.147" rx="90.918" ry="9.515"/>
		<path style="opacity:0.07;fill:#737277;" d="M250.234,382.147c0,2.176-16.85,3.939-37.636,3.939
			c-20.786,0-37.636-1.764-37.636-3.939c0-2.175,16.85-3.938,37.636-3.938C233.385,378.209,250.234,379.973,250.234,382.147z"/>
		<path style="opacity:0.07;fill:#737277;" d="M247.256,382.147c0,2.004-15.517,3.627-34.657,3.627
			c-19.141,0-34.657-1.623-34.657-3.627c0-2.003,15.517-3.627,34.657-3.627C231.739,378.521,247.256,380.145,247.256,382.147z"/>
		<path style="opacity:0.07;fill:#737277;" d="M244.735,382.147c0,1.857-14.389,3.363-32.137,3.363
			c-17.748,0-32.137-1.506-32.137-3.363c0-1.857,14.389-3.362,32.137-3.362C230.347,378.785,244.735,380.29,244.735,382.147z"/>
		<path style="opacity:0.07;fill:#737277;" d="M241.985,382.147c0,1.699-13.156,3.076-29.387,3.076
			c-16.23,0-29.387-1.377-29.387-3.076c0-1.698,13.156-3.075,29.387-3.075C228.829,379.072,241.985,380.449,241.985,382.147z"/>
		<path style="opacity:0.07;fill:#737277;" d="M264.212,382.147c0,2.983-23.107,5.401-51.613,5.401
			c-28.505,0-51.613-2.418-51.613-5.401c0-2.982,23.108-5.401,51.613-5.401C241.105,376.746,264.212,379.165,264.212,382.147z"/>
		<path style="opacity:0.07;fill:#737277;" d="M260.127,382.147c0,2.747-21.279,4.975-47.528,4.975
			c-26.249,0-47.528-2.228-47.528-4.975s21.279-4.974,47.528-4.974C238.848,377.174,260.127,379.4,260.127,382.147z"/>
		<ellipse style="opacity:0.07;fill:#737277;" cx="212.599" cy="382.147" rx="44.072" ry="4.612"/>
		<path style="opacity:0.07;fill:#737277;" d="M252.899,382.147c0,2.33-18.043,4.218-40.301,4.218
			c-22.258,0-40.301-1.888-40.301-4.218c0-2.329,18.043-4.217,40.301-4.217C234.857,377.931,252.899,379.818,252.899,382.147z"/>
		<ellipse style="opacity:0.07;fill:#737277;" cx="212.599" cy="382.147" rx="71.319" ry="7.464"/>
		<path style="opacity:0.07;fill:#737277;" d="M278.272,382.147c0,3.796-29.402,6.873-65.674,6.873
			c-36.271,0-65.674-3.077-65.674-6.873c0-3.795,29.402-6.872,65.674-6.872C248.87,375.275,278.272,378.353,278.272,382.147z"/>
		<path style="opacity:0.07;fill:#737277;" d="M273.497,382.147c0,3.521-27.266,6.374-60.898,6.374
			c-33.633,0-60.898-2.854-60.898-6.374c0-3.52,27.266-6.373,60.898-6.373C246.232,375.774,273.497,378.628,273.497,382.147z"/>
		<path style="opacity:0.07;fill:#737277;" d="M268.286,382.147c0,3.219-24.932,5.828-55.688,5.828
			c-30.756,0-55.688-2.609-55.688-5.828c0-3.218,24.932-5.827,55.688-5.827C243.355,376.32,268.286,378.93,268.286,382.147z"/>
		<path style="opacity:0.07;fill:#737277;" d="M238.548,382.147c0,1.5-11.617,2.716-25.949,2.716c-14.332,0-25.95-1.216-25.95-2.716
			c0-1.499,11.618-2.716,25.95-2.716C226.931,379.432,238.548,380.648,238.548,382.147z"/>
		<path style="opacity:0.07;fill:#737277;" d="M236.257,382.147c0,1.368-10.592,2.477-23.658,2.477
			c-13.066,0-23.658-1.108-23.658-2.477c0-1.367,10.592-2.476,23.658-2.476C225.665,379.672,236.257,380.78,236.257,382.147z"/>
		<path style="opacity:0.07;fill:#737277;" d="M234.653,382.147c0,1.275-9.874,2.309-22.055,2.309
			c-12.181,0-22.055-1.033-22.055-2.309c0-1.274,9.874-2.308,22.055-2.308C224.779,379.84,234.653,380.873,234.653,382.147z"/>
		<path style="opacity:0.07;fill:#737277;" d="M232.907,382.147c0,1.174-9.092,2.126-20.309,2.126
			c-11.217,0-20.309-0.952-20.309-2.126c0-1.173,9.092-2.125,20.309-2.125C223.816,380.022,232.907,380.975,232.907,382.147z"/>
		<path style="opacity:0.07;fill:#737277;" d="M231.431,382.147c0,1.089-8.432,1.972-18.832,1.972
			c-10.4,0-18.832-0.883-18.832-1.972c0-1.088,8.432-1.971,18.832-1.971C222.999,380.177,231.431,381.06,231.431,382.147z"/>
		<path style="opacity:0.07;fill:#737277;" d="M229.819,382.147c0,0.996-7.71,1.803-17.221,1.803
			c-9.511,0-17.221-0.807-17.221-1.803c0-0.995,7.71-1.802,17.221-1.802C222.109,380.346,229.819,381.152,229.819,382.147z"/>
		<path style="opacity:0.07;fill:#737277;" d="M227.806,382.147c0,0.879-6.809,1.592-15.207,1.592
			c-8.398,0-15.207-0.713-15.207-1.592c0-0.878,6.809-1.591,15.207-1.591C220.997,380.557,227.806,381.27,227.806,382.147z"/>
		<path style="opacity:0.07;fill:#737277;" d="M226.462,382.147c0,0.802-6.207,1.451-13.863,1.451
			c-7.656,0-13.863-0.65-13.863-1.451c0-0.801,6.207-1.45,13.863-1.45C220.255,380.697,226.462,381.347,226.462,382.147z"/>
		<path style="opacity:0.07;fill:#737277;" d="M226.462,382.147c0,0.802-6.207,1.451-13.863,1.451
			c-7.656,0-13.863-0.65-13.863-1.451c0-0.801,6.207-1.45,13.863-1.45C220.255,380.697,226.462,381.347,226.462,382.147z"/>
		<path style="opacity:0.07;fill:#737277;" d="M225.365,382.147c0,0.738-5.716,1.337-12.767,1.337
			c-7.051,0-12.767-0.599-12.767-1.337c0-0.737,5.716-1.336,12.767-1.336C219.649,380.811,225.365,381.41,225.365,382.147z"/>
		<path style="opacity:0.07;fill:#737277;" d="M224.437,382.147c0,0.685-5.3,1.239-11.838,1.239c-6.538,0-11.838-0.555-11.838-1.239
			c0-0.684,5.3-1.238,11.838-1.238C219.137,380.909,224.437,381.464,224.437,382.147z"/>
		<path style="opacity:0.07;fill:#737277;" d="M223.424,382.147c0,0.626-4.847,1.134-10.825,1.134
			c-5.979,0-10.825-0.508-10.825-1.134c0-0.625,4.847-1.133,10.825-1.133C218.577,381.015,223.424,381.522,223.424,382.147z"/>
		<path style="opacity:0.07;fill:#737277;" d="M222.157,382.147c0,0.553-4.279,1.001-9.559,1.001c-5.279,0-9.559-0.448-9.559-1.001
			c0-0.552,4.279-1,9.559-1C217.878,381.147,222.157,381.596,222.157,382.147z"/>
		<path style="opacity:0.07;fill:#737277;" d="M221.314,382.147c0,0.504-3.901,0.912-8.715,0.912c-4.813,0-8.715-0.408-8.715-0.912
			c0-0.503,3.901-0.911,8.715-0.911C217.412,381.236,221.314,381.645,221.314,382.147z"/>
		<path style="opacity:0.07;fill:#737277;" d="M220.723,382.147c0,0.47-3.638,0.851-8.124,0.851c-4.486,0-8.124-0.381-8.124-0.851
			s3.638-0.85,8.124-0.85C217.085,381.298,220.723,381.678,220.723,382.147z"/>
		<path style="opacity:0.07;fill:#737277;" d="M220.08,382.147c0,0.433-3.35,0.783-7.481,0.783c-4.132,0-7.481-0.351-7.481-0.783
			c0-0.432,3.35-0.782,7.481-0.782C216.73,381.365,220.08,381.716,220.08,382.147z"/>
		<path style="opacity:0.07;fill:#737277;" d="M219.536,382.147c0,0.401-3.106,0.727-6.938,0.727c-3.831,0-6.937-0.325-6.937-0.727
			c0-0.4,3.105-0.726,6.937-0.726C216.43,381.422,219.536,381.747,219.536,382.147z"/>
		<path style="opacity:0.07;fill:#737277;" d="M218.942,382.147c0,0.367-2.84,0.664-6.344,0.664c-3.504,0-6.344-0.297-6.344-0.664
			c0-0.366,2.84-0.663,6.344-0.663C216.103,381.484,218.942,381.781,218.942,382.147z"/>
		<path style="opacity:0.07;fill:#737277;" d="M218.2,382.147c0,0.324-2.508,0.587-5.602,0.587c-3.094,0-5.602-0.263-5.602-0.587
			c0-0.323,2.508-0.586,5.602-0.586C215.692,381.561,218.2,381.824,218.2,382.147z"/>
		<path style="opacity:0.07;fill:#737277;" d="M217.705,382.147c0,0.296-2.286,0.535-5.106,0.535c-2.82,0-5.106-0.239-5.106-0.535
			c0-0.295,2.286-0.534,5.106-0.534C215.419,381.613,217.705,381.853,217.705,382.147z"/>
		<path style="opacity:0.07;fill:#737277;" d="M216.982,382.147c0,0.254-1.963,0.459-4.383,0.459c-2.42,0-4.383-0.205-4.383-0.459
			c0-0.253,1.963-0.458,4.383-0.458C215.019,381.69,216.982,381.895,216.982,382.147z"/>
		<path style="opacity:0.07;fill:#737277;" d="M216.208,382.147c0,0.209-1.616,0.378-3.609,0.378c-1.993,0-3.608-0.169-3.608-0.378
			c0-0.208,1.615-0.377,3.608-0.377C214.592,381.771,216.208,381.94,216.208,382.147z"/>
		<path style="opacity:0.07;fill:#737277;" d="M215.091,382.147c0,0.145-1.116,0.261-2.492,0.261c-1.376,0-2.492-0.116-2.492-0.261
			c0-0.144,1.116-0.261,2.492-0.261C213.975,381.887,215.091,382.004,215.091,382.147z"/>
		<path style="opacity:0.07;fill:#737277;" d="M214.288,382.147c0,0.099-0.756,0.177-1.689,0.177c-0.934,0-1.689-0.078-1.689-0.177
			c0-0.098,0.756-0.177,1.689-0.177C213.532,381.971,214.288,382.05,214.288,382.147z"/>
	</g>
	<g>
		<g>
			<path style="fill:#E1AB81;" d="M124.12,346.267c2.506,5.436,7.232,9.728,12.057,12.637c1.096,0.661,2.191,1.321,3.287,1.983
				c2.15,1.297,4.299,2.594,6.449,3.892c1.266,0.76,2.529,1.523,3.793,2.286c1.008,0.608,2.674,0.403,2.973-0.94
				c0.318-1.447-0.814-2.442-1.791-3.239c-0.875-0.716-1.676-1.535-2.535-2.274c-1.797-1.549-3.512-3.192-5.303-4.748
				c-0.396-0.344-0.771-0.732-1.186-1.058c0.469,0.339,0.938,0.679,1.408,1.018c1.148,0.83,2.297,1.66,3.443,2.492
				c1.445,1.048,2.895,2.092,4.338,3.144c1.367,0.994,2.736,1.989,4.111,2.977c0.996,0.717,1.971,1.479,3.008,2.139
				c0.887,0.565,2.4,0.88,3.186-0.049c0.422-0.5,0.379-1.193,0.311-1.812c-0.074-0.669-0.662-1.643-1.16-2.1
				c-0.504-0.462-0.977-0.926-1.447-1.424c-1.262-1.339-2.729-2.578-4.127-3.773c-1.549-1.321-3.086-2.65-4.654-3.949
				c-1.307-1.08-2.613-2.158-3.914-3.245c-0.609-0.511-1.221-1.036-1.855-1.515c-0.014-0.009-0.025-0.016-0.039-0.023
				c0,0,18.289,14.359,18.348,14.404c1.225,0.961,4.225,2.57,5.508,0.475c0.453-0.738,0.186-2.331-0.193-3.044
				c-0.42-0.789-1.148-1.343-1.797-1.932c-1.354-1.226-2.637-2.497-4.039-3.676c-2.873-2.415-5.723-4.854-8.68-7.169
				c-0.654-0.512-1.285-1.06-1.957-1.547c2.092,1.853,4.604,3.536,6.916,5.111c2.744,1.867,4.488,3.425,6.645,4.69
				c0.563,0.33,1.322,0.916,1.988,0.922c0.963,0.011,2.219-0.228,2.703-0.955c0.688-1.032-0.051-2.954-0.982-3.761
				c-5.4-4.667-9.203-7.796-14.17-10.882c0,0-4.229-2.568-4.582-2.999c0,0,8.133,4.452,13.457,3.464c0,0,7.014-3.53-4.385-5.907
				c0,0-6.434-2.871-10.434-4.825c0,0-7.713-4.153-16.975-1.38c0,0-7.44-4.584-9.369-6.2l-7.139,9.241
				C115.335,332.715,122.272,342.257,124.12,346.267z"/>
			<path style="fill:#E1AB81;" d="M304.146,337.185c0.502,5.963-1.492,12.027-4.254,16.939c-0.627,1.116-1.256,2.23-1.881,3.345
				c-1.23,2.189-2.459,4.378-3.69,6.566c-0.727,1.286-1.447,2.574-2.172,3.86c-0.576,1.028-2.127,1.671-3.049,0.649
				c-0.992-1.102-0.496-2.527-0.041-3.701c0.408-1.055,0.701-2.163,1.082-3.23c0.799-2.232,1.48-4.508,2.271-6.744
				c0.176-0.494,0.309-1.019,0.51-1.506c-0.24,0.527-0.482,1.053-0.723,1.579c-0.592,1.289-1.178,2.578-1.766,3.867
				c-0.74,1.625-1.486,3.248-2.223,4.873c-0.701,1.542-1.398,3.081-2.107,4.618c-0.514,1.116-0.984,2.26-1.56,3.345
				c-0.492,0.929-1.654,1.949-2.797,1.528c-0.613-0.227-0.918-0.85-1.164-1.421c-0.268-0.62-0.234-1.756-0.025-2.399
				c0.211-0.65,0.393-1.287,0.555-1.952c0.438-1.787,1.103-3.59,1.73-5.318c0.695-1.912,1.375-3.828,2.1-5.73
				c0.603-1.584,1.207-3.168,1.805-4.754c0.275-0.744,0.551-1.504,0.867-2.233c0.006-0.013,0.014-0.025,0.022-0.039
				c0,0-8.824,21.514-8.854,21.581c-0.592,1.44-2.406,4.318-4.557,3.13c-0.76-0.419-1.31-1.937-1.334-2.742
				c-0.023-0.893,0.336-1.734,0.611-2.567c0.57-1.733,1.061-3.474,1.699-5.19c1.307-3.518,2.584-7.046,4.014-10.518
				c0.316-0.768,0.594-1.557,0.94-2.312c-0.906,2.645-2.26,5.347-3.496,7.857c-1.467,2.979-2.215,5.194-3.467,7.358
				c-0.324,0.565-0.697,1.449-1.272,1.783c-0.834,0.484-2.045,0.897-2.826,0.504c-1.105-0.56-1.412-2.596-1-3.756
				c2.396-6.725,4.16-11.322,6.957-16.457c0,0,2.414-4.32,2.508-4.87c0,0-4.879,7.886-9.996,9.653c0,0-7.844,0.389,0.9-7.303
				c0,0,4.18-5.67,6.693-9.343c0,0,4.66-7.419,14.086-9.575c0,0,4.209-7.658,5.09-10.015l15.453,6.48
				C309.786,323.026,303.772,332.784,304.146,337.185z"/>
			<g>
				<path style="fill:#CE966D;" d="M194.605,208.163c0,0,3.662,10.334-6.838,18.152c0,0,24,24.652,55.5,0c0,0-12-1.204-7.5-24.655
					L194.605,208.163z"/>
				<path style="fill:#434041;" d="M316.767,313.66l-21.793-56.961c-4.844-14.193-17.248-22.77-30.213-28.079
					c-7.045-2.885-14.098-5.754-21.152-8.624c-23.652,25.835-53.293,0-53.293,0c-4.383,2.41-8.744,4.859-13.117,7.291
					c-12.174,6.771-26.549,11.82-34.096,24.287l-34.672,60.753c0,0,3.168,22.833,12.123,28.621c0,0,2.545-13.954,21.156-11.996
					l-2.945-14.407l30.666-31.218l4.863,53h81.734l6.404-52.973l25.834,29.806l-11.537,20.667c19.332-8,27.488,5.17,27.488,5.17
					S313.897,327.302,316.767,313.66"/>
				<path style="fill:#E1AB81;" d="M251.124,169.508c-0.047-30.554-16.756-47.181-37.359-47.181
					c-20.602,0-37.311,16.627-37.357,47.181c-1.18,0.018-7.348,0.436-3.84,7.452c0,0,3.762,4.584,4.031,10.459
					c0,0,1.334,3.161,3.311,1.715c4.602,12.343,13.068,21.765,21.283,27.661c0,0,13.941,9.142,24.283,1.014
					c9.875-6.084,18.41-15.192,22.699-28.379c1.668,0.564,2.758-2.011,2.758-2.011c0.27-5.875,4.029-10.459,4.029-10.459
					C258.468,169.945,252.306,169.526,251.124,169.508z"/>
				<path style="fill:#40290F;" d="M251.517,169.66c-1.223,2.598-6.859,6.17-6.25,9.536c0,0.185,0,0.185,0,0
					c-0.756-1.182,0.113-4.841,0-6.286c-0.199-2.504-0.67-4.808-1.25-7.257c-1.215-5.111-2.715-9.692-5.682-14.057
					c-3.498-5.148-7.469-8.53-14.318-8.186c-4.121,0.208-10.313,1.2-10.994,6.176c-3.514-8.351-18.527-8.228-23.506-1.314
					c-2.918,4.051-4.113,8.597-4.801,13.445c-0.414,2.918-0.582,5.882-1.145,8.75c-0.34,1.725-0.602,5.284-1.555,6.444
					c0,0-0.967-5.053-5.609-7.402c-4.578-2.315-0.439-24.84,0.545-28.187c4.719-16.08,18.777-25.469,34.898-27.175
					c8.102-0.857,16.117-2.983,24.4-2.387c-1.801,1.308-3.662,3.071-5.209,4.837c4.707-0.755,9.162-2.235,14.184-1.862
					c-2.66,1.95-1.436,4.93-2.77,7.851c5.832-0.354,10.152,6.863,13.16,11.013c-2.793-0.74-5.43-2.177-8.201-2.973
					C259.692,134.152,255.208,161.811,251.517,169.66z"/>
				<path style="fill:#EDEEF0;" d="M190.316,219.996l-9.48,5.265c0,0,16.814,15.318,34.121,15.402c0.188,0.001,0.373,0,0.561-0.003
					c17.5-0.25,29.643-5.234,36.195-17.367l-8.104-3.297c0,0-13.293,11.795-24.691,11.48
					C218.917,231.476,206.767,232.078,190.316,219.996z"/>
			</g>
			<g>
				<path d="M282.226,361.851c0,3.279-2.66,5.937-5.938,5.937H150.821c-3.279,0-5.936-2.657-5.936-5.937V270.34
					c0-3.279,2.656-5.938,5.936-5.938h125.467c3.277,0,5.938,2.658,5.938,5.938V361.851z"/>
				<path style="fill:#89878C;" d="M146.517,271.599v51.192c0,23.311,2.592,42.208,5.791,42.208h122.395
					c3.199,0,5.791-18.897,5.791-42.208v-51.192H146.517z"/>
				<rect x="165.446" y="366.25" style="fill:#89878C;" width="18.969" height="4.475"/>
				<rect x="239.331" y="366.25" style="fill:#89878C;" width="18.967" height="4.475"/>
				<path d="M130.927,372.532h165.676c0,0-2.285,7.252-6.428,10.014h-144.25C145.925,382.546,132.374,381.164,130.927,372.532z"/>
			</g>
		</g>
		<g>
			<path d="M232.003,167.149c-2.051,0.16-4.006,0.507-5.783,1.049c-0.465,0.142-0.92,0.298-1.361,0.468
				c-8.541,2.758-15.32,1.279-18.572,0.166c-0.662-0.323-1.361-0.61-2.098-0.861l-0.004-0.002l0.002,0.001
				c-1.939-0.659-4.119-1.072-6.414-1.251c-16.066-1.254-18.67,5.464-15.967,13.404c2.396,7.041,6.205,10.646,15.08,10.646
				c8.873,0,13.379-2.397,15.08-10.646c0.283-1.366,0.338-2.618,0.199-3.762c2.137-1.892,4.27-0.977,5.521-0.076
				c-0.225,1.279-0.201,2.699,0.123,4.269c1.701,8.248,6.207,10.645,15.08,10.645c8.871,0,12.684-3.605,15.078-10.645
				C250.673,172.614,248.067,165.895,232.003,167.149z M209.835,180.235c-1.41,6.435-5.139,8.305-12.482,8.305
				c-7.344,0-10.498-2.814-12.482-8.305c-2.236-6.196-0.08-11.438,13.217-10.458C205.411,170.315,211.302,173.529,209.835,180.235z
				 M244.905,180.665c-1.982,5.493-5.139,8.305-12.482,8.305c-7.344,0-11.072-1.87-12.482-8.305
				c-1.467-6.706,4.424-9.919,11.748-10.458C244.987,169.228,247.142,174.47,244.905,180.665z"/>
			<polygon points="183.648,178.098 179.759,179.099 178.261,169.042 184.462,169.042 			"/>
			<polygon points="246.265,178.098 250.153,179.099 251.648,169.042 245.448,169.042 			"/>
		</g>
	</g>
</g>
</svg>
